<?xml version="1.0" encoding="utf-8"?>
<!-- Generator: Adobe Illustrator 27.0.1, SVG Export Plug-In . SVG Version: 6.00 Build 0)  -->
<svg version="1.1" id="Layer_1" xmlns="http://www.w3.org/2000/svg" xmlns:xlink="http://www.w3.org/1999/xlink" x="0px" y="0px"
	 viewBox="0 0 532.4 138.6" style="enable-background:new 0 0 532.4 138.6;" xml:space="preserve">
<style type="text/css">
	.st0{fill:#E00000;}
	.st1{fill:#FFFFFF;}
	.st2{font-family:'PingFangSC-Semibold-GBpc-EUC-H';}
	.st3{font-size:26.32px;}
	.st4{font-family:'PingFangTC-Semibold-B5pc-H';}
	.st5{font-size:11.62px;}
	.st6{font-family:'Helvetica-Bold';}
	.st7{font-size:62.89px;}
</style>
<g id="Layer_2_00000021120764099292706450000015080393062716500356_">
	<g id="Layer_1-2">
		<circle class="st0" cx="37.6" cy="37.6" r="37.6"/>
		<path class="st1" d="M61.5,46.4c-1.4,0-2.8,0-4.2,0c-1.1,0-2.1-0.5-2.7-1.3c-4.4-5.9-8.7-11.9-12.6-18.2c-1.3-2.2-2.7-4.4-4-6.6
			c-1-1.7-2.1-3.3-3.3-4.8c-0.7-0.8-1.6-1.3-2.6-1.6c-0.4-0.1-0.8-0.3-1.2-0.6c-0.3-0.3-0.7-0.6-0.4-1.1c0.2-0.4,0.7-0.6,1.1-0.5
			c1,0.1,2,0.5,2.7,1.2c0.9,1,1.7,2,2.5,3.1c4.8,6.8,10,13.2,15.6,19.3c3.9,4.1,8.4,7.7,13.3,10.5c0.3,0.2,0.7,0.4,0.6,0.8
			s-0.5,0.2-0.8,0.2h-4.1L61.5,46.4z"/>
		<path class="st1" d="M20,20.9c2.3,0.2,4.4,1.5,5.6,3.5c0.3,0.4,0.3,0.9-0.1,1.2c0,0,0,0,0,0c-1,1-1.8,2.2-2.5,3.4
			c-3.4,5.4-7.2,10.5-12.3,14.5c-1.6,1.2-3.2,2.3-4.8,3.3c-0.3,0.2-0.7,0.5-1,0.1s0.2-0.6,0.4-0.8c3.9-3.4,7.4-7.3,10.5-11.5
			c2.2-2.9,4-6.1,5.1-9.5c0.1-0.4,0.2-0.8,0.3-1.2c0.2-0.9-0.3-1.8-1.2-2c0,0,0,0-0.1,0l-0.2,0c-0.4-0.1-0.8-0.3-0.7-0.7
			S19.7,20.9,20,20.9z"/>
		<text transform="matrix(1 0 0 1 78.22 43.76)" class="st1 st2 st3">プロトコル</text>
		<text transform="matrix(1 0 0 1 35.7 59.94)" class="st1 st4 st5">バイト</text>
		<text transform="matrix(1 0 0 1 88.6 108.32)" class="st1 st6 st7">Hachi Protocol</text>
	</g>
</g>
</svg>
