<?xml version="1.0" encoding="UTF-8"?>
<svg id="Layer_2" data-name="Layer 2" xmlns="http://www.w3.org/2000/svg" viewBox="0 0 92.18 76.01">
  <defs>
    <style>
      .cls-1 {
        fill: #231f20;
      }
    </style>
  </defs>
  <g id="Layer_1-2" data-name="Layer 1">
    <path class="cls-1" d="M90.06,24.92H1.37C4.69,12.02,23.33,.91,42.34,.06c24.73-1.1,44.05,12.05,47.72,24.85Zm-25.18-16.87c-.12-1.02-.71-1.93-1.46-1.71-1.97,.59-3.1,2.25-3.64,4.13-.14,.48,.73,1.68,1.67,1.3,1.71-.69,2.68-2.21,3.44-3.73Zm-29.35,.36c1.24-.51,3.21-.15,3.37-2.19,.07-.87-.87-1.39-1.8-1.28-1.45,.18-3.2,.16-3.39,2.14-.08,.89,.83,1.32,1.82,1.33Z"/>
    <path class="cls-1" d="M45.3,60.83c13.66,0,27.31,.12,40.97-.09,3.85-.06,4.54,1.06,3.38,4.52-2.08,6.17-7.45,10.61-14.19,10.65-19.98,.12-39.97,.13-59.95-.01-6.9-.05-12.67-4.95-14.28-11.17-.75-2.9-.37-4.04,3.11-3.98,13.65,.22,27.31,.09,40.97,.08Z"/>
    <path class="cls-1" d="M46.12,32.92c12.97,0,25.94,.06,38.9-.03,3.99-.03,7.22,.93,7.16,5.52-.06,4.32-3.36,5.26-7.01,5.26-26.26,0-52.51,0-78.77-.01-3.61,0-6.35-1.4-6.4-5.36-.05-3.92,2.44-5.43,6.22-5.41,13.3,.06,26.6,.02,39.9,.02v.02Z"/>
    <path class="cls-1" d="M89.93,50.93c-2.42,4.94-8.3,6.44-13.53,3.34-1.52-.9-2.76-2.2-4.14-3.29-4.46-3.54-8.22-3.5-12.66,.12-7.9,6.44-11.2,6.43-19.2-.09-4.44-3.61-8.02-3.59-12.61,.09-8.28,6.63-10.94,6.67-19.18-.12-2.12-1.74-4.66-2.48-7.14-3.61,4.21-1.48,7.17,.54,9.81,3.14,4.45,4.4,8.37,4.6,13.31,.58,7.89-6.44,11.03-6.43,19.25,.07,4.58,3.62,8.06,3.58,12.63-.15,7.63-6.22,11.58-6.3,18.82-.13,3.69,3.14,7.49,4.16,11.76,1.08,.94-.68,1.9-.92,3.03-.91l-.13-.12Z"/>
    <path class="cls-1" d="M89.93,52.93c-2.42,4.94-8.3,6.44-13.53,3.34-1.52-.9-2.76-2.2-4.14-3.29-4.46-3.54-8.22-3.5-12.66,.12-7.9,6.44-11.2,6.43-19.2-.09-4.44-3.61-8.02-3.59-12.61,.09-8.28,6.63-10.94,6.67-19.18-.12-2.12-1.74-4.66-2.48-7.14-3.61,4.21-1.48,7.17,.54,9.81,3.14,4.45,4.4,8.37,4.6,13.31,.58,7.89-6.44,11.03-6.43,19.25,.07,4.58,3.62,8.06,3.58,12.63-.15,7.63-6.22,11.58-6.3,18.82-.13,3.69,3.14,7.49,4.16,11.76,1.08,.94-.68,1.9-.92,3.03-.91l-.13-.12Z"/>
  </g>
</svg>